<?xml version="1.0" standalone="no"?>
<!DOCTYPE svg PUBLIC "-//W3C//DTD SVG 20010904//EN"
 "http://www.w3.org/TR/2001/REC-SVG-20010904/DTD/svg10.dtd">
<svg version="1.0" xmlns="http://www.w3.org/2000/svg"
 width="533.000000pt" height="533.000000pt" viewBox="0 0 533.000000 533.000000"
 preserveAspectRatio="xMidYMid meet">
<metadata>
Created by potrace 1.14, written by Peter Selinger 2001-2017
</metadata>
<g transform="translate(0.000000,533.000000) scale(0.100000,-0.100000)"
fill="#000000" stroke="none">
<path d="M2250 5323 c0 -3 10 -14 23 -25 12 -11 17 -17 10 -14 -12 6 -28 -10
-28 -29 0 -5 -10 -10 -21 -11 -12 -1 -26 -4 -32 -8 -6 -3 -13 -3 -16 2 -5 8 9
12 49 13 16 0 17 2 5 9 -8 5 -21 5 -32 -1 -17 -9 -22 -5 -19 15 1 5 -5 4 -13
-3 -11 -9 -13 -18 -6 -30 6 -13 5 -18 -5 -18 -8 0 -14 3 -13 6 2 18 -4 30 -17
35 -13 4 -14 2 -5 -14 9 -16 8 -18 -5 -14 -8 4 -15 10 -15 15 0 5 -5 9 -11 9
-6 0 -8 -9 -4 -22 7 -21 6 -22 -6 -5 -16 20 -69 33 -69 17 0 -5 -9 -10 -20
-10 -11 0 -20 6 -20 13 0 9 -3 8 -9 -2 -6 -9 -10 -10 -14 -2 -3 7 -4 7 -2 -1
1 -7 7 -12 12 -11 19 4 9 -27 -15 -49 -14 -13 -22 -17 -18 -10 4 6 3 12 -2 12
-6 0 -13 -7 -16 -16 -3 -9 -12 -14 -19 -11 -6 2 -20 0 -30 -5 -13 -7 -19 -4
-27 14 l-9 23 0 -22 c-1 -13 -5 -23 -10 -23 -5 0 -8 12 -5 28 l4 27 -14 -24
c-14 -26 -41 -35 -64 -22 -10 6 -11 10 -3 15 6 4 11 3 11 -3 0 -5 9 -9 20 -8
10 1 17 3 15 6 -3 2 0 9 5 16 7 8 5 12 -5 12 -7 0 -14 -3 -13 -6 2 -20 -5 -22
-24 -5 -13 10 -20 15 -16 10 4 -5 1 -15 -7 -22 -16 -16 -29 -19 -20 -4 3 6 1
10 -4 10 -6 0 -11 -6 -11 -12 0 -9 -4 -8 -10 2 -8 12 -16 7 -46 -28 -22 -25
-42 -41 -50 -38 -8 3 -14 1 -14 -4 0 -14 18 -21 25 -10 4 6 11 7 17 4 7 -5 8
-2 3 6 -6 9 -4 11 5 5 7 -5 11 -4 8 1 -4 5 6 10 20 11 l27 1 -28 -14 c-15 -8
-25 -19 -22 -24 3 -5 0 -12 -6 -16 -7 -4 -9 -3 -5 4 3 6 2 13 -3 17 -5 3 -14
-2 -19 -11 -8 -15 -10 -15 -15 1 -4 9 -12 13 -18 9 -8 -4 -9 1 -5 17 3 13 3
18 0 11 -5 -10 -9 -10 -20 -1 -8 7 -17 9 -21 5 -3 -3 -1 -6 5 -6 6 0 9 -8 6
-17 -5 -15 -4 -16 5 -3 6 8 11 10 11 4 0 -22 -15 -24 -30 -5 -15 21 -15 21
-16 -4 -1 -14 2 -22 7 -19 5 3 6 -2 3 -10 -7 -18 -25 -22 -22 -5 2 6 -4 14
-12 16 -9 3 -11 1 -5 -4 10 -7 12 -25 5 -38 -1 -3 -3 -9 -4 -14 0 -5 -4 -13
-8 -16 -4 -4 -5 5 -2 20 3 17 1 24 -6 20 -5 -3 -10 -13 -10 -21 0 -8 -5 -14
-11 -14 -6 0 -9 7 -5 15 3 8 0 14 -7 12 -7 -1 -11 4 -9 11 1 8 -2 11 -8 7 -5
-3 -10 -18 -10 -33 0 -20 -3 -23 -9 -12 -6 8 -8 17 -5 21 2 4 -1 11 -8 15 -7
4 -10 4 -6 -1 4 -4 2 -15 -5 -23 -10 -13 -9 -14 2 -7 10 6 12 4 7 -4 -6 -9
-12 -8 -26 4 -17 16 -18 16 -16 0 1 -9 8 -20 16 -25 9 -6 7 -10 -9 -15 -12 -3
-18 -11 -15 -17 5 -7 2 -8 -6 -3 -10 6 -9 11 5 22 17 12 17 13 2 13 -16 0 -21
-10 -18 -37 1 -6 -4 -15 -10 -19 -7 -4 -9 -3 -6 2 3 6 1 16 -5 24 -8 13 -9 12
-5 -2 3 -9 0 -24 -7 -33 -11 -15 -16 -16 -37 -5 l-24 12 23 -21 c24 -23 29
-41 11 -41 -5 0 -7 -6 -3 -12 4 -7 -2 -5 -13 5 -21 18 -21 18 -26 0 -4 -14 -5
-14 -6 5 0 12 -5 22 -10 22 -4 0 -7 -12 -5 -27 2 -16 1 -21 -2 -13 -11 24 -26
29 -41 14 -15 -15 -38 -19 -29 -6 3 5 -2 9 -10 9 -10 0 -8 -7 8 -25 l23 -25
-22 12 c-23 12 -43 -2 -22 -15 8 -5 9 -3 4 6 -5 8 -4 11 3 6 6 -4 8 -14 5 -22
-5 -13 -7 -13 -14 -2 -8 12 -13 4 -10 -16 1 -5 -11 -1 -26 9 -15 10 -23 12
-16 5 11 -12 7 -43 -6 -36 -3 2 -13 -3 -21 -12 -13 -14 -12 -15 3 -9 9 3 17 2
17 -3 0 -5 -10 -10 -22 -12 -12 -2 -24 -10 -26 -18 -5 -13 -3 -13 12 -1 14 12
16 12 10 -3 -4 -11 -13 -15 -26 -10 -11 3 -18 2 -15 -3 3 -4 -2 -17 -10 -28
-13 -17 -15 -17 -10 -2 6 15 4 16 -15 6 -21 -11 -21 -12 -3 -25 16 -12 16 -14
3 -14 -9 0 -18 -3 -21 -7 -2 -5 -3 -3 -1 3 1 6 -2 17 -7 25 -7 12 -9 12 -10
-1 -1 -8 -1 -19 0 -23 1 -4 -6 -10 -14 -13 -11 -4 -12 -10 -6 -18 8 -9 3 -12
-19 -10 -25 2 -28 -1 -24 -21 2 -13 0 -27 -6 -30 -6 -4 -7 -11 -4 -17 4 -7 2
-8 -5 -4 -9 6 -9 11 1 24 8 10 8 13 1 9 -6 -4 -13 -4 -16 0 -2 5 -2 2 -1 -4 3
-12 -9 -17 -29 -14 -5 1 -6 -3 -2 -9 3 -6 10 -8 15 -5 5 3 12 0 16 -6 5 -8 3
-9 -6 -4 -10 6 -12 4 -7 -9 4 -9 3 -15 -2 -11 -5 3 -12 -1 -15 -7 -3 -9 -5 -8
-3 2 1 8 -3 16 -8 18 -13 3 -14 -19 -3 -35 11 -13 -17 -12 -29 2 -4 4 -2 5 6
0 9 -5 12 -4 7 3 -10 16 -14 15 -27 -9 -8 -15 -8 -19 0 -15 13 8 14 4 5 -18
-6 -15 -7 -15 -19 0 -11 15 -12 15 -12 -2 0 -11 5 -23 11 -27 7 -5 6 -7 -4 -6
-19 3 -50 -11 -50 -22 0 -4 6 -6 14 -3 8 3 16 1 20 -4 3 -5 -13 -8 -34 -6 -35
2 -38 1 -25 -13 21 -20 19 -26 -5 -13 -16 9 -19 8 -13 -6 4 -11 2 -15 -4 -11
-6 4 -14 0 -17 -9 -5 -14 -9 -14 -24 -3 -9 7 -6 0 8 -16 17 -19 18 -24 6 -15
-18 13 -19 13 -14 -1 4 -10 1 -16 -8 -16 -9 0 -13 7 -9 21 4 18 3 18 -7 -2 -9
-19 -9 -25 3 -33 11 -8 10 -9 -6 -7 -13 2 -20 -2 -19 -13 1 -9 -5 -16 -12 -16
-7 0 -10 5 -7 10 3 6 1 7 -5 3 -6 -4 -9 -13 -6 -20 3 -8 1 -17 -5 -21 -6 -3
-11 -12 -11 -18 0 -7 5 -4 11 6 10 17 29 15 29 -4 0 -6 -4 -7 -10 -4 -5 3 -10
-3 -10 -14 0 -10 6 -22 13 -24 9 -4 9 -6 -1 -6 -7 -1 -10 -6 -6 -13 4 -6 3 -8
-4 -4 -5 3 -12 1 -14 -6 -3 -7 -7 -5 -11 6 -5 11 -3 15 5 10 7 -5 8 -3 3 6 -6
9 -4 11 5 5 9 -6 11 -4 6 4 -6 9 -12 9 -25 -3 -10 -9 -21 -13 -26 -9 -4 5 -3
-2 4 -14 8 -15 8 -24 1 -28 -8 -5 -7 -12 2 -23 11 -12 8 -12 -14 2 l-27 18 5
-27 c4 -22 3 -24 -10 -13 -7 7 -12 16 -9 20 2 4 -3 5 -11 2 -14 -5 -14 -8 -1
-21 11 -11 12 -19 5 -34 -14 -25 -18 -24 -15 5 2 19 -1 23 -17 18 -11 -3 -15
-8 -9 -11 6 -4 9 -17 6 -29 -2 -12 1 -22 7 -22 7 0 3 -7 -8 -15 -16 -13 -17
-16 -4 -25 13 -9 13 -10 0 -11 -8 -1 -18 -1 -22 0 -4 0 -5 -6 -1 -15 5 -14 3
-15 -18 -5 -21 11 -22 11 -6 -2 9 -8 17 -17 17 -21 0 -11 -28 -6 -32 6 -3 7
-7 3 -10 -9 -4 -17 -2 -20 11 -16 11 4 10 1 -4 -10 -19 -15 -19 -16 -1 -23 17
-7 17 -8 -5 -20 -15 -8 -24 -22 -24 -36 0 -14 -5 -22 -13 -20 -8 1 -11 -1 -8
-6 3 -5 -1 -17 -8 -28 -13 -17 -13 -16 -11 9 2 15 -1 25 -5 22 -5 -3 -6 -13
-3 -22 4 -10 2 -14 -5 -9 -6 3 -13 2 -17 -4 -4 -6 -11 -7 -17 -4 -7 4 -8 2 -4
-5 6 -9 11 -9 22 0 11 9 14 9 14 0 0 -17 -26 -41 -35 -33 -5 4 -1 -3 7 -16 9
-13 14 -32 11 -43 -5 -17 5 -24 29 -20 15 2 8 -17 -8 -23 -24 -9 -31 -7 -14 4
9 6 10 10 3 10 -18 0 -25 -18 -11 -27 7 -4 20 -17 28 -28 12 -16 9 -15 -20 5
-29 20 -32 21 -20 5 8 -11 18 -23 22 -26 15 -10 16 -66 2 -66 -7 0 -10 5 -7
11 4 6 0 5 -9 -1 -8 -7 -18 -11 -21 -8 -4 3 -5 2 -2 -2 3 -3 -3 -12 -13 -20
-9 -8 -12 -12 -5 -9 13 7 43 -3 43 -14 0 -9 -41 -7 -58 4 -7 4 -16 5 -19 2 -4
-3 -2 -6 4 -6 6 0 13 -10 16 -22 6 -21 5 -22 -7 -5 -13 16 -14 15 -12 -15 0
-20 -3 -32 -11 -31 -16 3 -9 -30 8 -35 21 -7 27 -20 23 -53 -3 -21 0 -28 8
-23 7 5 8 3 2 -7 -5 -8 -9 -30 -9 -49 0 -19 -4 -41 -8 -47 -5 -7 -5 -18 -1
-25 4 -7 3 -8 -5 -4 -6 4 -9 18 -5 34 11 47 11 87 1 100 -6 8 -5 12 3 12 8 0
11 2 8 5 -3 3 -13 2 -22 -1 -13 -5 -15 -9 -5 -15 7 -4 14 -21 15 -38 1 -17 -1
-29 -6 -26 -4 3 -8 -1 -7 -8 1 -32 -4 -48 -13 -42 -6 4 -18 1 -27 -7 -15 -11
-16 -11 -10 5 4 10 3 16 -2 12 -5 -3 -9 -175 -9 -396 l1 -390 21 5 c28 7 85
-28 61 -38 -10 -4 -14 -2 -9 6 4 7 3 8 -5 4 -16 -11 -2 -29 17 -21 9 3 13 3
10 -1 -4 -4 -3 -16 3 -27 9 -15 8 -18 -2 -12 -9 6 -11 3 -6 -8 4 -11 2 -14 -9
-10 -7 3 -14 0 -14 -6 0 -6 6 -11 13 -11 17 0 13 -60 -5 -71 -10 -7 -10 -9 2
-10 8 -1 18 -1 23 0 4 0 7 -4 7 -10 0 -6 -7 -8 -17 -5 -15 6 -14 4 2 -16 11
-13 13 -17 5 -10 -8 6 -20 12 -28 12 -9 0 -6 -7 9 -21 17 -14 20 -22 12 -25
-20 -8 -15 -24 4 -18 15 5 15 4 3 -4 -10 -8 -19 -7 -29 1 -12 10 -13 9 -4 -8
6 -11 9 -28 8 -38 -2 -9 1 -18 6 -18 19 -3 24 -5 40 -14 9 -6 21 -20 28 -32 7
-15 17 -20 29 -17 10 4 13 2 7 -3 -16 -13 -19 -47 -3 -37 11 6 11 5 0 -8 -10
-13 -10 -17 0 -20 8 -3 7 -6 -4 -11 -12 -4 -16 -1 -13 13 2 11 0 22 -5 25 -4
3 -7 -3 -6 -12 2 -10 -4 -23 -12 -29 -13 -9 -12 -14 9 -35 13 -13 24 -30 24
-39 1 -25 -15 -51 -27 -44 -7 4 -8 3 -4 -4 4 -8 17 -5 39 8 l33 19 1 -22 c2
-17 0 -18 -7 -7 -8 13 -11 13 -22 1 -7 -8 -8 -11 -2 -8 7 4 19 -4 28 -17 9
-15 12 -26 5 -30 -5 -2 -4 -3 3 -2 8 2 12 16 12 34 -1 18 3 32 9 32 6 0 7 -3
4 -7 -4 -3 -2 -12 4 -20 7 -7 7 -13 2 -13 -13 0 -8 -69 5 -82 8 -8 8 -17 1
-31 -7 -12 -7 -17 -1 -13 6 3 12 3 15 -1 2 -5 2 -3 1 4 -2 7 0 14 4 17 7 4 11
-10 14 -51 1 -7 5 -10 10 -7 5 4 9 0 7 -7 -3 -29 1 -50 10 -44 5 3 12 1 15 -4
4 -5 1 -13 -5 -17 -8 -5 -9 -3 -4 6 5 9 4 11 -4 6 -6 -4 -9 -11 -6 -15 2 -5 9
-21 15 -36 6 -15 13 -25 16 -22 3 3 1 14 -5 24 -7 15 -7 20 4 20 8 0 11 -7 7
-16 -5 -14 -4 -14 13 -1 17 14 18 14 8 -4 -13 -23 3 -66 24 -66 7 0 13 -4 13
-10 0 -5 5 -10 11 -10 8 0 8 5 -1 15 -7 9 -8 15 -2 15 13 0 24 -29 15 -43 -4
-7 1 -5 12 3 16 14 17 13 11 -8 -4 -12 -3 -22 2 -22 12 0 10 -19 -2 -39 -6
-10 -5 -12 2 -7 16 10 15 -7 0 -23 -11 -10 -10 -12 1 -9 7 2 16 -3 19 -11 3
-10 0 -11 -9 -5 -12 6 -12 5 -1 -8 8 -10 26 -15 47 -14 18 1 32 -1 29 -3 -2
-2 1 -10 7 -17 7 -8 6 -14 -2 -20 -7 -4 -9 -3 -5 4 3 6 2 13 -3 16 -5 4 -8 -2
-6 -11 2 -10 4 -20 4 -23 1 -3 10 -11 22 -18 12 -8 18 -9 14 -3 -3 6 -2 11 3
11 9 0 24 -25 26 -42 1 -4 9 -17 19 -28 14 -17 21 -19 32 -10 11 9 14 6 18
-12 l4 -23 8 23 c6 17 10 20 16 11 5 -8 0 -20 -13 -31 -18 -15 -19 -21 -8 -31
8 -7 10 -8 7 -1 -8 13 20 40 30 30 3 -3 1 -6 -4 -6 -6 0 -10 -8 -8 -17 2 -10
4 -20 4 -23 1 -2 6 1 13 8 18 18 32 14 17 -5 -12 -14 -12 -15 0 -9 10 7 12 3
7 -15 -6 -22 -6 -23 5 -4 12 19 12 19 20 0 12 -30 10 -47 -3 -39 -7 4 -8 3 -4
-5 6 -9 11 -9 22 0 11 9 12 15 3 26 -10 11 -9 12 5 7 18 -7 20 -16 6 -30 -11
-11 -17 -80 -7 -90 3 -4 13 -1 22 6 18 15 20 0 3 -20 -7 -8 -9 -11 -4 -7 5 4
15 2 23 -5 11 -9 13 -8 11 3 -2 9 5 14 19 13 13 -1 20 3 16 9 -3 5 -1 7 5 3 5
-3 12 -1 14 5 2 6 9 -2 16 -17 11 -27 11 -27 -3 -10 -16 21 -21 11 -7 -12 5
-7 16 -10 25 -6 13 4 16 2 11 -9 -3 -8 0 -18 7 -23 8 -4 10 -3 5 4 -5 8 -2 10
9 6 12 -5 13 -9 4 -20 -9 -12 -9 -13 3 -9 9 4 15 0 16 -10 1 -8 3 -22 4 -30 1
-8 4 -13 6 -10 3 3 11 0 18 -6 9 -7 14 -6 20 3 4 7 4 10 -1 6 -10 -10 -37 11
-29 23 3 5 1 9 -5 9 -5 0 -8 7 -7 15 3 19 13 29 13 12 1 -27 9 -42 27 -50 17
-7 18 -8 1 -35 l-18 -27 21 18 c21 19 76 31 66 15 -3 -5 -12 -7 -19 -4 -8 3
-18 -1 -24 -8 -8 -9 -5 -12 12 -12 13 1 21 -4 20 -11 -2 -7 2 -13 7 -13 6 0
10 -5 10 -11 0 -5 -4 -7 -10 -4 -5 3 -7 0 -4 -9 4 -10 16 -14 39 -12 28 3 32
1 27 -13 -5 -14 -3 -14 10 -3 14 11 16 11 14 -2 -1 -9 -6 -19 -11 -23 -4 -4
-5 -2 0 6 5 9 4 12 -3 7 -6 -3 -15 1 -20 10 -6 11 -11 13 -16 5 -4 -6 -2 -11
4 -11 6 0 8 -5 4 -12 -4 -6 -3 -8 4 -4 6 3 13 2 17 -4 4 -6 11 -7 17 -4 7 5 9
2 5 -8 -3 -9 0 -24 8 -35 10 -13 13 -14 12 -3 -1 8 2 16 8 17 5 1 13 10 17 20
7 16 8 16 5 -2 -2 -11 -9 -19 -16 -17 -7 1 -10 -2 -6 -8 8 -13 8 -13 33 9 12
10 19 21 16 24 -3 3 2 4 12 3 10 -2 20 -8 22 -14 2 -6 11 -8 20 -5 15 4 15 3
2 -6 -13 -10 -8 -15 12 -12 4 0 5 -6 1 -15 -5 -13 -7 -13 -14 -2 -7 10 -9 9
-9 -4 0 -16 23 -24 53 -19 5 1 6 -3 2 -9 -3 -6 -12 -7 -18 -3 -7 3 -3 -3 7
-15 19 -21 32 -30 23 -14 -3 4 -1 16 4 27 7 18 8 18 9 -5 2 -14 2 -29 1 -34
-1 -5 5 -4 13 3 8 7 21 9 27 5 8 -4 9 -3 5 4 -4 7 -4 12 1 12 12 0 35 -16 34
-24 -3 -21 1 -28 12 -23 8 3 20 1 28 -5 11 -8 10 -9 -4 -4 -11 3 -16 2 -12 -4
3 -6 13 -10 21 -10 9 0 12 -5 8 -12 -4 -6 -3 -8 4 -4 6 3 13 2 17 -3 7 -12 35
-3 35 11 0 7 -5 7 -13 0 -10 -8 -16 -5 -26 11 -11 18 -11 20 0 10 7 -7 17 -13
22 -13 4 0 5 6 1 13 -6 9 -5 9 7 0 11 -9 19 -9 26 -2 7 7 12 6 16 -5 4 -10 1
-13 -9 -9 -7 3 -14 0 -14 -6 0 -6 3 -10 8 -10 19 3 29 -2 30 -16 1 -8 3 -21 4
-29 1 -8 6 -14 12 -13 6 1 10 -5 8 -13 -2 -8 0 -12 3 -8 4 4 16 3 26 -2 12 -7
20 -7 24 0 4 6 10 8 15 5 5 -3 11 -1 15 5 4 6 11 7 17 4 6 -4 5 -10 -3 -16
-11 -8 -11 -9 1 -5 8 2 14 10 13 16 -3 10 11 15 20 9 2 -2 12 4 22 12 11 9 16
10 11 3 -4 -7 -2 -13 3 -13 6 0 11 5 11 11 0 5 5 7 11 3 8 -4 7 -9 -2 -15 -7
-4 -10 -11 -6 -15 3 -4 14 -1 24 7 15 12 16 12 10 -3 -8 -22 2 -50 14 -42 5 3
9 -4 9 -14 0 -11 8 -23 18 -27 14 -5 15 -4 5 6 -7 7 -13 18 -13 24 0 5 4 4 9
-4 8 -13 12 -13 27 0 11 9 15 9 10 2 -4 -7 -3 -13 3 -13 6 0 8 -6 5 -14 -3 -8
-1 -17 4 -20 5 -3 9 2 8 11 0 11 6 18 19 18 11 0 19 6 17 13 -1 8 2 11 8 7 6
-3 8 -11 4 -16 -3 -5 0 -8 8 -7 7 2 12 -3 10 -10 -1 -8 2 -11 8 -7 6 3 8 11 5
16 -11 17 22 9 51 -13 16 -12 23 -15 17 -7 -7 9 -9 20 -5 24 4 5 1 5 -7 0 -10
-5 -12 -4 -7 4 4 6 11 9 16 6 5 -3 11 -1 15 5 8 13 25 13 25 0 0 -5 -3 -9 -7
-7 -5 1 -9 -2 -11 -7 -1 -6 4 -11 13 -12 8 -1 13 1 10 6 -3 4 2 11 11 14 8 3
12 2 9 -4 -3 -5 -1 -18 5 -27 10 -16 10 -16 5 2 -4 18 0 21 30 23 20 2 35 -2
35 -8 0 -6 4 -9 9 -5 6 3 8 -4 6 -16 -3 -16 -1 -19 13 -14 13 5 14 3 6 -5 -9
-9 -18 -9 -35 0 -23 11 -23 11 1 -9 24 -20 36 -21 404 -20 l378 0 -6 37 c-5
30 -4 33 4 14 5 -13 15 -20 20 -17 8 5 5 16 -6 33 l-17 27 28 -25 28 -25 -13
25 c-7 14 -9 22 -5 18 5 -4 14 -3 22 4 18 14 31 1 13 -15 -10 -10 -11 -9 -5 2
6 10 4 12 -4 7 -13 -9 -6 -21 12 -21 7 -1 11 -7 9 -14 -1 -7 2 -10 7 -7 5 4 8
14 6 24 -2 14 4 18 30 18 19 0 32 -3 30 -6 -2 -3 1 -12 7 -20 8 -12 9 -12 4 2
-3 10 -1 20 4 23 10 6 14 -7 11 -35 -2 -13 0 -13 8 -1 5 8 7 20 4 27 -2 6 1
15 8 20 8 4 10 3 5 -4 -4 -7 -2 -12 4 -12 6 0 8 -5 4 -12 -4 -7 -3 -8 5 -4 6
4 9 13 5 19 -3 7 2 3 11 -8 17 -20 17 -20 11 5 l-7 25 16 -25 15 -25 -4 28
c-4 23 -2 26 8 18 7 -6 15 -9 18 -6 3 3 11 -1 17 -9 11 -13 9 -15 -8 -11 -12
2 -21 0 -21 -6 0 -10 35 -7 46 4 4 4 14 7 23 7 14 0 14 -2 1 -10 -12 -7 -10
-9 7 -8 19 2 19 4 7 23 -13 19 -12 21 14 19 15 -1 26 -7 24 -13 -1 -7 2 -10 8
-6 8 5 8 11 1 19 -6 7 -7 17 -3 22 4 4 0 3 -9 -4 -13 -10 -19 -9 -28 2 -8 10
-9 16 -1 21 6 4 9 3 8 -2 -2 -4 2 -9 7 -10 6 -2 10 1 10 7 0 5 11 17 25 26 14
10 22 14 18 9 -11 -12 11 -35 27 -29 8 3 11 13 8 22 -4 13 -2 14 4 4 11 -14
33 -13 46 3 5 6 7 4 4 -5 -2 -8 -9 -15 -14 -15 -6 0 -14 -2 -17 -5 -3 -3 8 -6
23 -5 16 0 27 3 24 7 -6 11 5 10 30 -4 20 -10 21 -10 8 6 -8 9 -11 19 -7 23 3
3 6 0 6 -7 0 -9 7 -6 20 8 22 24 40 31 21 9 -8 -10 -7 -14 3 -14 9 0 12 12 10
38 -3 43 9 57 32 38 14 -11 13 -14 -7 -24 -14 -8 -18 -15 -10 -19 6 -4 11 -3
11 3 0 5 9 13 20 16 11 4 17 11 14 17 -4 7 -2 8 5 4 7 -4 9 -17 6 -29 -5 -16
-4 -18 3 -8 6 8 15 10 22 6 9 -5 11 -4 6 3 -4 7 -2 13 3 13 12 2 26 5 39 9 4
1 10 2 15 1 4 0 7 3 7 9 0 11 -28 9 -47 -3 -7 -5 -13 -5 -13 0 0 4 -5 1 -11
-7 -9 -13 -10 -13 -6 0 2 8 9 15 14 15 6 0 15 3 19 8 4 4 17 7 28 8 12 0 15 3
9 6 -7 2 -13 12 -12 21 0 11 2 12 6 5 6 -16 33 -17 33 -2 0 5 -4 8 -9 5 -5 -3
-11 0 -14 8 -5 12 0 12 26 5 45 -13 51 -11 36 9 -12 15 -12 16 1 6 8 -6 33
-14 55 -17 22 -3 34 -3 27 0 -6 2 -9 10 -6 15 4 6 2 8 -4 4 -6 -3 -14 -2 -17
4 -4 6 -1 9 6 8 6 -2 14 3 17 11 3 10 0 12 -14 7 -14 -5 -16 -4 -8 4 15 15 44
2 37 -18 -4 -14 -3 -15 6 -2 7 11 6 19 -5 31 -14 16 -14 18 3 27 26 14 78 -19
60 -38 -10 -12 -9 -12 4 -2 9 6 20 8 24 4 5 -4 5 -1 1 6 -6 11 5 17 27 13 4
-1 10 6 13 14 3 8 11 12 16 9 6 -4 4 4 -3 17 -11 22 -11 23 5 10 9 -8 16 -10
15 -5 -4 22 2 44 12 44 5 0 7 -4 4 -10 -3 -6 1 -7 9 -4 9 3 13 10 10 15 -3 6
2 21 10 34 11 17 13 25 5 25 -7 0 -10 3 -6 6 3 3 11 3 17 -1 8 -5 8 -11 -1
-21 -8 -10 -8 -14 0 -14 6 0 11 4 11 10 0 5 8 6 18 3 16 -7 16 -6 0 11 -20 19
-23 27 -9 23 5 -1 16 7 25 18 14 19 14 19 13 1 -1 -10 4 -20 11 -22 7 -1 8 0
3 2 -6 3 -7 12 -4 20 3 8 -1 22 -8 31 -8 9 -9 14 -4 11 6 -4 17 -3 25 2 8 5
19 5 25 0 6 -5 17 -5 25 2 13 8 12 9 -1 5 -13 -4 -15 -1 -11 15 3 14 7 16 13
7 6 -10 12 -9 28 5 11 10 18 23 15 27 -11 18 -12 49 -3 55 5 3 8 0 7 -8 -2 -7
3 -12 10 -10 8 1 11 -2 7 -8 -3 -6 -11 -7 -17 -4 -7 4 -8 2 -4 -4 9 -15 12
-15 30 4 10 10 16 11 16 3 0 -8 4 -8 13 -2 6 6 27 10 45 9 19 0 36 3 39 8 4 5
1 6 -5 2 -7 -4 -12 -2 -12 4 0 6 -4 9 -8 6 -5 -3 -9 1 -9 9 0 8 4 15 9 15 4 0
8 -4 8 -10 0 -14 26 -12 39 3 7 10 7 17 0 24 -8 8 -7 13 2 18 8 5 10 4 5 -3
-4 -7 -1 -12 7 -12 9 0 13 9 12 25 -2 14 1 23 6 19 5 -3 7 -9 4 -14 -3 -5 0
-12 7 -16 7 -4 10 -4 6 1 -4 4 -2 15 5 23 9 13 9 14 0 8 -19 -11 -15 5 5 21
13 10 13 13 2 11 -8 -2 -16 6 -18 19 -3 18 0 22 15 17 14 -5 15 -4 4 4 -8 6
-20 8 -28 5 -7 -3 -13 0 -13 6 0 6 6 10 13 8 6 -1 11 4 9 11 -1 8 2 11 7 8 5
-4 12 -2 16 3 3 6 12 8 20 5 8 -4 12 -11 8 -17 -3 -5 -1 -7 5 -4 5 4 9 18 8
32 -2 13 1 22 5 19 9 -5 12 5 12 39 0 12 3 14 12 7 8 -7 18 -1 34 21 19 26 25
28 39 17 12 -10 14 -10 8 0 -4 6 -2 12 3 12 6 0 11 4 11 10 0 5 -8 7 -18 4
-16 -5 -16 -5 1 6 22 14 38 5 31 -18 -5 -15 -4 -15 6 1 9 13 9 22 0 32 -7 8
-7 15 -1 19 5 4 13 1 18 -6 6 -10 13 -8 30 9 l22 23 -29 -5 c-17 -3 -30 -2
-30 3 0 4 10 9 23 10 48 5 62 9 63 20 1 7 2 17 3 23 0 5 5 8 10 4 5 -3 13 0
17 6 4 8 3 9 -4 5 -7 -4 -12 -2 -12 4 0 6 -5 8 -12 4 -7 -5 -8 -3 -3 6 6 10 4
12 -10 6 -13 -5 -10 1 8 18 26 24 37 43 18 32 -4 -3 -16 3 -25 13 -12 13 -14
21 -6 26 6 4 9 1 8 -7 -2 -8 7 -13 27 -13 17 0 35 -3 41 -7 6 -4 11 -1 11 7 0
8 -5 13 -10 12 -5 -1 -11 3 -14 10 -3 8 3 11 18 8 12 -2 19 -2 15 2 -3 3 -1
12 5 20 6 7 8 13 4 13 -4 0 -2 7 5 15 7 8 9 15 4 15 -5 0 -2 5 6 11 12 8 11 9
-5 7 -15 -2 -19 2 -17 17 2 11 4 28 5 37 1 9 5 15 8 12 4 -2 10 0 14 5 3 6 13
7 23 4 14 -6 15 -4 4 9 -10 13 -8 15 15 11 l28 -4 -24 14 c-18 11 -20 16 -10
20 12 5 12 7 -1 16 -11 8 -12 11 -2 11 7 0 11 4 8 9 -3 5 2 15 12 22 15 12 16
12 6 -1 -16 -23 -11 -44 11 -47 15 -2 16 -1 5 5 -16 7 -20 25 -7 38 13 13 8
34 -8 28 -8 -4 -15 -1 -15 7 0 7 3 9 6 6 4 -3 15 -2 25 4 15 8 17 6 12 -7 -4
-12 -3 -15 5 -10 7 4 12 14 12 22 0 17 11 18 30 2 12 -11 12 -10 2 3 -9 12 -9
18 0 27 7 7 8 12 4 12 -5 0 -2 8 5 17 12 16 10 15 -16 -1 l-30 -19 18 20 c10
11 20 33 22 49 4 24 3 26 -5 12 -6 -10 -16 -18 -23 -18 -8 0 -9 3 -1 8 19 12
23 51 7 67 -8 8 -11 15 -6 15 5 0 14 -5 20 -11 8 -8 13 -7 18 2 5 7 4 10 -2 6
-12 -7 -26 20 -18 33 3 4 15 6 27 2 14 -3 19 -1 14 6 -5 8 -1 10 11 5 16 -6
16 -4 -2 18 -11 13 -13 18 -5 12 17 -16 40 -17 40 -2 0 5 -4 8 -9 4 -5 -3 -13
0 -17 6 -4 8 -3 9 4 5 19 -11 14 5 -5 20 -17 13 -17 14 0 8 14 -5 18 -2 15 12
-2 11 -7 23 -13 27 -6 5 -3 7 7 3 12 -3 15 -1 11 11 -3 8 0 19 8 25 10 7 7 8
-11 3 -21 -5 -22 -4 -8 5 9 6 15 17 12 25 -4 8 -9 13 -13 10 -10 -6 -7 33 4
42 4 5 5 3 1 -4 -3 -6 -2 -14 3 -18 6 -3 8 4 6 16 -3 16 0 20 13 15 15 -5 15
-4 2 7 -8 6 -16 19 -18 27 -2 8 -9 18 -15 22 -9 6 -8 8 1 8 7 0 10 5 7 10 -4
6 -11 8 -16 4 -6 -3 -5 3 2 14 15 24 18 23 24 -8 2 -12 7 -25 11 -29 4 -3 4 1
2 9 -7 21 10 52 24 44 7 -4 8 -3 4 4 -3 6 3 16 14 22 19 10 20 20 20 190 0
156 -2 180 -16 180 -8 0 -13 -4 -9 -9 3 -5 1 -12 -4 -15 -11 -7 -9 13 2 32 5
7 13 9 19 6 7 -4 8 -2 4 5 -4 6 -13 8 -19 4 -20 -12 -37 -12 -37 0 0 7 -5 5
-10 -3 -7 -11 -9 -6 -6 18 4 34 -10 42 -33 20 -10 -11 -12 -10 -9 2 2 8 -3 14
-10 12 -8 -1 -11 2 -6 9 5 9 2 10 -10 6 -9 -4 -15 -3 -11 2 3 5 -2 16 -10 24
-11 12 -12 16 -2 20 9 3 9 7 -1 20 -8 9 -10 22 -6 28 5 8 3 9 -5 5 -7 -5 -10
-14 -7 -22 3 -8 1 -14 -4 -14 -6 0 -11 5 -11 10 -1 6 -2 14 -3 19 0 5 -5 13
-10 18 -5 4 -6 3 -2 -4 9 -17 -12 -27 -29 -13 -8 7 -15 9 -15 5 0 -4 7 -13 16
-19 13 -10 11 -12 -13 -11 -39 2 -46 -4 -31 -23 12 -15 11 -16 -5 -3 -13 10
-15 17 -6 27 6 8 16 11 21 8 6 -4 5 3 -1 15 -13 24 -23 28 -15 6 4 -8 2 -15
-4 -15 -6 0 -12 5 -14 12 -3 7 -7 5 -11 -6 -4 -11 -3 -15 4 -10 7 4 7 -1 -1
-16 -10 -19 -14 -20 -28 -8 -23 20 -63 21 -55 2 3 -8 1 -14 -4 -14 -12 0 -13
33 -1 41 5 3 2 9 -7 12 -9 4 -14 3 -11 -2 3 -5 -2 -12 -11 -15 -15 -6 -15 -8
-3 -17 13 -9 13 -10 0 -6 -8 2 -14 11 -14 20 1 15 -20 17 -33 2 -4 -4 -2 -5 5
-1 6 4 12 3 12 -2 0 -5 -12 -9 -26 -9 l-25 0 23 26 c17 20 18 22 3 10 -11 -9
-33 -19 -48 -23 -17 -4 -25 -11 -21 -18 5 -7 3 -8 -6 -3 -7 4 -16 2 -21 -6 -5
-9 -7 -2 -4 19 2 19 0 30 -6 26 -5 -3 -7 -9 -4 -14 3 -5 1 -11 -5 -15 -5 -3
-11 -1 -11 4 -3 26 -4 30 -10 35 -4 4 -6 -5 -5 -19 0 -13 -3 -25 -9 -25 -5 0
-10 4 -10 9 0 5 -4 13 -8 18 -5 4 -8 3 -7 -2 5 -24 -1 -27 -16 -9 -13 16 -15
16 -10 2 8 -25 -9 -22 -27 5 l-15 22 1 -22 c1 -13 6 -23 11 -23 5 0 7 -3 4 -6
-4 -3 -15 -1 -26 5 -13 7 -23 7 -32 -2 -12 -10 -12 -9 -1 5 7 10 18 15 23 12
6 -4 5 3 -1 15 -13 24 -23 28 -15 6 4 -8 2 -15 -4 -15 -6 0 -12 5 -14 12 -3 7
-7 5 -11 -6 -4 -11 -3 -15 4 -10 7 4 7 -1 -1 -16 -10 -19 -14 -20 -28 -8 -23
20 -63 21 -55 2 3 -8 1 -14 -4 -14 -12 0 -13 33 -1 41 5 3 2 9 -7 12 -9 4 -14
3 -11 -2 3 -5 -2 -12 -11 -15 -15 -6 -15 -8 -3 -17 13 -9 13 -10 0 -6 -8 2
-14 11 -14 20 1 15 -20 17 -33 2 -4 -4 -2 -5 5 -1 6 4 12 3 12 -2 0 -5 -12 -9
-26 -10 l-25 0 23 27 c17 20 18 22 3 10 -11 -9 -33 -19 -48 -23 -17 -4 -25
-11 -21 -18 5 -7 3 -8 -6 -3 -7 4 -16 2 -21 -6 -5 -9 -7 -2 -4 19 2 19 0 30
-6 26 -5 -3 -7 -9 -4 -14 3 -5 1 -11 -5 -15 -5 -3 -11 -1 -11 4 -3 26 -4 30
-10 35 -4 4 -6 -5 -5 -19 0 -13 -3 -25 -9 -25 -5 0 -10 4 -10 9 0 5 -4 13 -8
18 -5 4 -8 3 -7 -2 5 -24 -1 -27 -16 -9 -13 16 -15 16 -10 2 8 -25 -9 -22 -27
5 l-15 22 1 -22 c1 -13 6 -23 11 -23 5 0 7 -3 4 -6 -4 -3 -15 -1 -26 5 -13 7
-23 7 -32 -2 -12 -10 -12 -9 -1 5 7 10 18 15 23 12 6 -4 5 3 -1 15 -13 24 -23
28 -15 6 4 -8 2 -15 -4 -15 -6 0 -12 5 -14 12 -3 7 -7 5 -11 -6 -4 -11 -3 -15
4 -10 7 4 7 -1 -1 -16 -10 -19 -14 -20 -28 -8 -23 20 -63 21 -55 2 3 -8 1 -14
-4 -14 -12 0 -13 33 -1 41 5 3 2 9 -7 12 -9 4 -14 3 -11 -2 3 -5 -2 -12 -11
-15 -15 -6 -15 -8 -3 -17 13 -9 13 -10 0 -6 -8 2 -14 11 -14 20 1 15 -20 17
-33 2 -4 -4 -2 -5 5 -1 6 4 12 3 12 -2 0 -5 -12 -9 -26 -9 l-25 0 23 26 c17
20 18 22 3 10 -11 -9 -33 -19 -48 -23 -17 -4 -25 -11 -21 -18 5 -7 3 -8 -6 -3
-7 4 -16 2 -21 -6 -5 -9 -7 -2 -4 19 2 19 0 30 -6 26 -5 -3 -7 -9 -4 -14 3 -5
1 -11 -5 -15 -5 -3 -11 -1 -11 4 -3 26 -4 30 -10 35 -4 4 -6 -5 -5 -19 0 -13
-3 -25 -9 -25 -5 0 -10 4 -10 9 0 5 -4 13 -8 18 -5 4 -8 3 -7 -2 5 -24 -1 -27
-16 -9 -13 16 -15 16 -10 2 8 -25 -9 -22 -27 5 l-15 22 1 -22 c1 -13 6 -23 11
-23 5 0 7 -3 4 -6 -4 -3 -15 -1 -26 5 -13 7 -23 7 -32 -2 -12 -10 -12 -9 -1 5
7 10 18 15 23 12 6 -4 5 3 -1 15 -13 24 -23 28 -15 6 4 -8 2 -15 -4 -15 -6 0
-12 5 -14 12 -3 7 -7 5 -11 -6 -4 -11 -3 -15 4 -10 7 4 7 -1 -1 -16 -10 -19
-14 -20 -28 -8 -23 20 -63 21 -55 2 3 -8 1 -14 -4 -14 -12 0 -13 33 -1 41 5 3
2 9 -7 12 -9 4 -14 3 -11 -2 3 -5 -2 -12 -11 -15 -15 -6 -15 -8 -3 -17 13 -9
13 -10 0 -6 -8 2 -14 11 -14 20 1 15 -20 17 -33 2 -4 -4 -2 -5 5 -1 6 4 12 3
12 -2 0 -5 -12 -9 -26 -9 l-25 0 23 26 c22 25 22 25 1 7 -13 -11 -39 -19 -62
-20 -23 0 -37 -5 -34 -11 3 -5 0 -4 -8 3 -15 14 -33 17 -25 4 3 -5 -1 -9 -9
-9 -8 0 -12 3 -10 7 2 3 -6 12 -18 20 -20 12 -21 12 -8 -3 9 -12 10 -17 2 -17
-7 0 -10 -4 -7 -8 3 -5 -7 -7 -23 -4 -31 4 -61 -21 -40 -34 7 -4 9 -3 5 4 -3
6 -2 13 3 16 13 9 7 -22 -7 -36 -7 -7 -20 -13 -30 -13 -11 0 -16 -6 -14 -19 3
-18 2 -18 -13 -2 -9 9 -22 16 -28 15 -8 0 -8 -2 1 -6 6 -2 9 -10 6 -15 -4 -7
-2 -8 4 -4 7 4 12 2 12 -3 0 -6 -4 -11 -9 -11 -15 0 -9 -49 7 -55 14 -5 14 -7
2 -15 -21 -13 -33 -12 -24 2 4 7 3 8 -4 4 -16 -10 -15 -14 9 -27 12 -6 19 -7
16 -2 -4 5 0 10 7 10 23 0 6 -27 -18 -28 -20 0 -20 -1 -1 -8 11 -5 25 -6 30
-3 6 3 4 -1 -2 -9 -16 -16 -17 -33 -1 -23 7 4 8 3 4 -5 -4 -6 -12 -9 -17 -6
-5 4 -12 -1 -15 -9 -3 -9 -11 -16 -17 -16 -5 0 -2 9 8 20 10 11 14 20 9 20 -5
0 -2 5 6 11 10 7 11 9 2 7 -8 -2 -13 -7 -12 -12 1 -4 -13 -21 -31 -37 -27 -24
-29 -28 -10 -24 12 2 19 0 16 -6 -4 -5 -10 -7 -15 -4 -11 7 -20 -19 -15 -45 2
-11 0 -18 -6 -15 -5 4 -6 11 -3 17 4 7 2 8 -4 4 -7 -4 -12 -2 -12 5 0 7 -3 9
-6 6 -4 -4 -1 -13 5 -21 7 -9 8 -17 2 -20 -5 -3 -7 -15 -4 -25 3 -11 0 -28 -7
-38 -10 -16 -11 -16 -7 4 3 13 1 26 -4 29 -5 3 -8 2 -7 -3 2 -4 0 -8 -3 -8 -3
0 -13 -8 -23 -18 -19 -19 -41 -13 -32 9 3 8 0 14 -5 14 -7 0 -9 -11 -7 -25 3
-13 1 -22 -4 -19 -11 7 -40 -15 -33 -25 2 -4 -2 -8 -10 -8 -11 0 -12 4 -4 14
16 18 1 17 -17 -2 -9 -8 -11 -15 -6 -15 5 0 12 -9 15 -19 3 -14 1 -18 -9 -14
-8 3 -11 9 -8 14 3 5 1 9 -5 9 -5 0 -11 -5 -13 -11 -2 -6 -18 -12 -36 -14 -18
-1 -31 0 -28 2 3 3 1 14 -5 24 -9 18 -39 16 -39 -3 0 -6 6 -5 15 2 12 10 15
10 15 -3 0 -20 -16 -31 -25 -17 -4 6 -13 7 -23 1 -23 -11 -42 -3 -35 14 4 11
10 12 26 4 21 -10 21 -9 3 5 -18 14 -21 13 -42 -9 -30 -32 -62 -22 -55 18 1 5
-3 6 -8 2 -6 -3 -8 -13 -5 -23 5 -13 4 -14 -4 -3 -5 7 -12 9 -14 5 -3 -5 -3
-2 -1 6 12 42 11 48 -8 43 -19 -5 -23 4 -20 37 1 10 -1 11 -6 4 -4 -6 -16 -10
-25 -8 -10 1 -18 -2 -18 -7 0 -5 -21 -8 -47 -6 -38 3 -47 7 -45 20 2 10 -2 17
-8 17 -5 0 -10 6 -10 13 1 6 10 1 21 -12 11 -14 30 -26 42 -28 17 -2 19 -1 7
6 -8 5 -17 8 -21 5 -10 -6 -20 26 -12 38 3 7 1 8 -5 4 -12 -7 -16 4 -13 37 2
10 -5 17 -16 17 -15 0 -16 2 -3 10 11 7 18 3 28 -13 11 -18 12 -19 6 -2 -3 11
-7 25 -7 32 0 8 -6 9 -18 2 -25 -13 -35 -11 -21 3 16 16 15 29 0 26 -7 -2 -12
2 -11 8 2 14 -28 14 -47 0 -8 -5 -12 -6 -8 -2 4 5 3 15 -3 22 -8 9 -4 12 14
10 15 -2 24 2 24 11 0 8 -6 12 -12 9 -7 -2 -18 0 -26 5 -12 7 -12 9 0 9 10 0
11 3 2 14 -10 11 -9 14 3 12 9 -1 19 -6 23 -11 4 -4 3 -5 -3 -2 -6 3 -11 0
-11 -8 0 -11 4 -12 14 -3 7 6 11 13 8 16 -3 3 1 12 8 21 10 14 10 14 -5 3 -11
-9 -18 -10 -23 -2 -3 5 -2 10 3 10 6 0 8 9 5 20 -3 11 -10 17 -17 13 -7 -4 -6
-1 1 9 7 8 10 18 6 22 -11 10 -12 37 -2 30 5 -3 6 -11 3 -17 -4 -7 -3 -8 2 -4
5 5 9 19 9 32 1 20 -2 22 -15 12 -13 -10 -13 -10 -3 4 7 9 9 20 5 24 -4 5 -1
5 5 1 7 -4 21 -2 30 4 17 10 17 10 -1 8 -10 -2 -21 3 -23 10 -3 8 1 10 12 6
10 -4 15 -2 13 7 -2 7 6 14 18 15 25 1 66 23 44 24 -11 0 -11 3 -2 12 15 15
15 28 1 28 -5 0 -7 -5 -3 -12 4 -7 3 -8 -4 -4 -7 4 -10 0 -7 -12 2 -11 -3 -19
-11 -19 -9 0 -10 4 -5 11 5 6 9 13 10 16 0 3 3 13 6 23 4 9 2 24 -5 32 -11 14
-10 14 13 6 22 -9 25 -8 20 6 -5 13 -3 14 16 4 16 -9 21 -9 19 0 -2 6 3 14 11
17 10 3 12 0 7 -14 -5 -15 -4 -16 5 -7 14 14 2 36 -18 29 -8 -3 -12 -2 -9 2 3
5 -1 9 -9 9 -12 0 -12 -3 -2 -16 10 -12 9 -14 -4 -9 -9 4 -21 2 -25 -2 -5 -5
-15 -5 -24 1 -13 9 -12 10 2 5 11 -3 22 2 28 15 6 11 15 17 21 14 5 -4 9 0 9
7 0 9 3 9 8 2 4 -6 21 -18 39 -26 32 -16 32 -16 23 8 -8 19 -6 22 7 17 11 -4
14 -2 9 5 -4 8 -2 10 8 6 10 -4 20 6 31 30 17 35 33 51 22 22 -3 -8 1 -17 9
-20 12 -5 14 -1 9 17 -4 15 -3 18 3 8 5 -7 12 -9 14 -5 3 5 3 3 2 -3 -2 -7 1
-13 6 -13 5 0 11 8 13 18 4 16 5 16 6 -1 0 -10 6 -15 11 -12 6 4 8 10 6 14 -3
4 6 7 20 7 13 0 24 -4 24 -8 0 -7 -15 -12 -32 -9 -5 0 -8 -3 -8 -9 0 -13 6
-13 31 0 15 9 21 7 25 -5 4 -10 10 -12 18 -6 6 5 14 9 18 8 3 -1 10 2 15 7 4
5 3 7 -3 3 -6 -3 -11 0 -11 8 0 11 4 12 13 4 7 -6 18 -8 23 -5 5 4 13 1 17 -5
4 -7 3 -9 -4 -5 -6 3 -14 1 -18 -5 -4 -8 -3 -9 4 -5 7 4 12 1 12 -6 0 -10 2
-10 9 1 5 8 17 16 27 17 25 4 37 20 15 20 -11 0 -18 -3 -16 -6 2 -4 -2 -7 -10
-7 -13 0 -13 3 1 18 9 10 13 22 10 27 -4 6 5 9 19 8 21 -3 24 0 21 21 -3 13
-1 21 5 18 5 -4 7 -10 4 -15 -3 -4 3 -7 12 -5 10 2 25 4 33 4 13 1 13 2 0 11
-14 9 -13 11 9 14 5 0 13 5 18 9 4 5 1 7 -7 5 -8 -2 -14 3 -12 10 1 8 -2 11
-8 7 -17 -11 -11 7 8 21 15 12 14 13 -9 9 -17 -3 -26 0 -26 8 0 9 10 12 26 10
22 -3 23 -2 6 5 -12 6 -20 19 -20 33 0 13 -5 24 -12 24 -6 0 -15 4 -20 9 -4 5
-3 6 4 2 15 -8 43 31 36 50 -3 8 -9 11 -15 8 -5 -3 -4 3 3 14 11 17 10 24 -2
39 -13 17 -13 17 4 4 9 -8 20 -11 24 -7 4 3 -3 13 -15 22 -36 25 -10 43 28 19
13 -8 13 -7 1 8 -7 9 -17 14 -22 11 -5 -3 -9 4 -9 15 0 12 -5 21 -12 21 -6 0
-8 3 -4 7 4 5 14 -1 22 -11 8 -11 14 -15 14 -9 0 7 -6 18 -13 25 -8 7 -12 19
-9 26 2 7 -2 20 -10 30 -12 15 -11 16 5 3 9 -8 20 -11 24 -7 4 3 -3 13 -15 22
-36 25 -10 43 28 19 13 -8 13 -7 1 8 -7 9 -17 14 -22 11 -5 -3 -9 4 -9 15 0
12 -5 21 -12 21 -6 0 -8 3 -4 7 4 5 14 -1 22 -11 8 -11 14 -15 14 -9 0 7 -7
18 -15 27 -17 16 -20 30 -6 21 5 -3 13 0 17 6 4 8 3 9 -4 5 -7 -4 -12 -2 -12
4 0 6 -5 8 -12 4 -9 -6 -9 -3 0 9 8 9 11 21 7 27 -6 9 8 15 29 11 5 -1 4 4 -2
12 -7 8 -8 18 -4 22 4 5 1 5 -6 1 -7 -4 -10 -11 -8 -15 3 -4 -2 -8 -10 -8 -10
0 -11 4 -4 11 14 14 13 29 -2 20 -6 -4 -8 -3 -5 4 4 5 15 9 25 7 9 -1 11 0 5
2 -7 3 -13 9 -13 14 0 6 -5 7 -12 3 -7 -4 -8 -3 -4 5 4 6 12 9 17 6 5 -4 17
-1 26 4 16 9 15 10 -6 8 -13 -1 -26 4 -28 11 -3 6 2 12 10 12 9 0 14 7 12 18
-1 11 -9 16 -21 14 -15 -3 -14 0 6 18 14 12 19 19 13 15 -13 -6 -17 6 -14 34
2 8 -3 10 -11 6 -10 -6 -11 -5 0 6 6 7 12 17 12 22 0 4 -6 5 -12 1 -10 -6 -10
-4 0 7 15 16 16 33 0 23 -6 -4 -8 -3 -5 4 4 5 15 9 25 7 9 -1 11 0 5 2 -7 3
-13 9 -13 14 0 6 -5 7 -12 3 -7 -4 -8 -3 -4 5 4 6 12 9 17 6 5 -4 17 -1 26 4
16 9 15 10 -6 8 -13 -1 -26 4 -28 11 -3 6 2 12 10 12 9 0 14 7 12 18 -1 11 -9
16 -21 14 -15 -3 -14 0 6 18 14 12 19 19 13 15 -13 -6 -17 6 -14 34 2 8 -2 10
-10 5 -8 -4 -10 -3 -5 5 9 14 29 3 23 -13 -3 -7 1 -13 9 -13 10 0 10 6 -3 28
-9 15 -21 25 -26 22 -6 -3 -7 -1 -3 5 4 6 14 8 23 5 15 -6 16 -5 3 9 -8 9 -19
13 -24 10 -5 -3 -6 0 -2 7 4 6 11 9 16 6 5 -3 12 0 16 6 4 8 3 9 -4 5 -7 -4
-12 -2 -12 4 0 6 -5 8 -11 5 -6 -4 -5 2 2 13 11 17 10 24 -2 39 -13 17 -13 17
4 4 9 -8 20 -11 24 -7 4 3 -3 13 -15 22 -36 25 -10 43 28 19 13 -8 13 -7 1 8
-7 9 -17 14 -22 11 -5 -3 -9 4 -9 15 0 12 -5 21 -12 21 -6 0 -8 3 -4 7 4 5 14
-1 22 -11 8 -11 14 -15 14 -9 0 7 -6 18 -13 25 -8 7 -12 19 -9 26 2 7 -2 20
-10 30 -12 15 -11 16 5 3 9 -8 20 -11 24 -7 4 3 -3 13 -15 22 -36 25 -10 43
28 19 13 -8 13 -7 1 8 -7 9 -17 14 -22 11 -5 -3 -9 4 -9 15 0 12 -5 21 -12 21
-6 0 -8 3 -4 7 4 5 14 -1 22 -11 8 -11 14 -15 14 -9 0 16 -30 44 -40 38 -5 -3
-11 -1 -15 4 -3 6 5 8 20 5 22 -4 25 -2 17 13 -5 10 -7 30 -6 46 2 18 -1 25
-8 21 -7 -4 -8 -2 -4 4 4 6 14 8 23 5 15 -6 16 -5 3 9 -8 9 -19 13 -25 10 -5
-2 -4 1 3 9 15 16 16 33 0 23 -7 -4 -8 -3 -4 5 4 6 13 8 19 5 8 -5 8 -3 0 7
-16 16 -17 29 -2 29 5 0 7 -5 3 -12 -5 -7 -3 -8 5 -4 7 5 10 11 7 14 -3 3 1
13 9 22 13 14 12 16 -8 17 -15 2 -18 0 -9 -6 11 -6 10 -10 -3 -15 -24 -9 -32
-7 -15 4 13 9 13 10 0 10 -12 1 -11 3 3 11 12 7 15 15 8 27 -4 9 -6 23 -3 31
3 9 0 11 -8 6 -9 -5 -11 -4 -6 4 4 6 12 9 17 6 5 -3 6 1 3 9 -3 9 -11 13 -18
9 -6 -3 -6 -1 2 8 6 7 12 17 12 22 0 4 -6 5 -12 1 -10 -6 -10 -4 0 7 15 16 16
33 1 23 -8 -4 -8 0 0 15 7 11 17 21 24 21 7 0 6 -4 -3 -10 -12 -7 -12 -11 -2
-20 6 -5 10 -7 7 -3 -3 3 2 14 10 23 13 15 13 17 0 18 -8 1 -22 3 -30 4 -8 1
-12 5 -10 9 6 9 -22 32 -33 26 -4 -3 -8 9 -7 26 0 21 -5 32 -15 33 -8 1 -19 3
-25 4 -5 1 -14 2 -18 1 -5 -1 -6 3 -2 9 5 8 11 7 21 -1 23 -19 16 -2 -11 25
-14 14 -25 22 -25 18 0 -5 5 -13 11 -19 7 -7 6 -12 -6 -17 -9 -3 -14 -2 -10 3
3 5 0 22 -6 38 -11 28 -11 28 -20 6 -13 -35 -19 -27 -7 8 9 26 12 29 20 15 10
-17 28 -13 28 7 0 8 -3 8 -9 -1 -7 -11 -9 -11 -14 1 -4 12 -45 14 -241 15
-130 0 -236 -2 -236 -5z m-179 -90 c13 -16 12 -17 -3 -4 -13 9 -18 10 -18 2 0
-7 -5 -9 -11 -5 -8 4 -7 9 2 15 8 5 15 9 15 9 1 0 8 -8 15 -17z m739 -27 c0
-2 -6 -9 -14 -15 -11 -9 -16 -9 -22 0 -4 7 -3 9 4 5 6 -3 13 -2 17 4 6 10 15
14 15 6z m-1159 -69 l-23 -22 17 28 c10 15 20 25 23 22 3 -3 -5 -16 -17 -28z
m289 19 c0 -2 -7 -7 -16 -10 -8 -3 -12 -2 -9 4 6 10 25 14 25 6z m-430 -142
c0 -8 -19 -13 -24 -6 -3 5 1 9 9 9 8 0 15 -2 15 -3z m-163 -69 c0 -8 -4 -12
-9 -9 -5 3 -6 10 -3 15 9 13 12 11 12 -6z m-57 -39 c0 -2 -8 -10 -17 -17 -16
-13 -17 -12 -4 4 13 16 21 21 21 13z m-448 -343 c-6 -2 -9 -10 -6 -15 4 -7 2
-8 -5 -4 -13 9 -5 26 12 25 9 0 8 -2 -1 -6z m32 -11 c3 -5 -1 -9 -9 -9 -8 0
-12 4 -9 9 3 4 7 8 9 8 2 0 6 -4 9 -8z m-149 -151 c3 -5 2 -12 -3 -15 -5 -3
-9 1 -9 9 0 17 3 19 12 6z m-81 -101 c-6 -6 -10 -3 -10 10 0 13 4 16 10 10 7
-7 7 -13 0 -20z m2231 -120 c-3 -5 -12 -10 -18 -10 -7 0 -6 4 3 10 19 12 23
12 15 0z m0 -240 c-3 -5 -12 -10 -18 -10 -7 0 -6 4 3 10 19 12 23 12 15 0z
m-2531 -69 c4 -5 -3 -7 -14 -4 -23 6 -26 13 -6 13 8 0 17 -4 20 -9z m-96 -123
c-2 -7 3 -12 10 -10 6 1 12 -2 12 -8 0 -14 -13 -13 -28 2 -15 15 -16 28 -2 28
6 0 9 -6 8 -12z m-2 -40 c4 -7 3 -8 -5 -4 -7 4 -15 -2 -20 -16 -6 -14 -10 -17
-10 -7 -1 8 4 20 11 27 15 15 15 15 24 0z m-79 -75 c-4 -3 0 -16 8 -29 13 -20
12 -23 -1 -28 -8 -3 -12 -1 -9 4 3 5 1 18 -4 28 -9 18 -6 32 7 32 3 0 2 -3 -1
-7z m3 -238 c0 -2 -9 -3 -19 -2 -11 0 -18 5 -15 9 4 6 34 0 34 -7z m-66 -104
c3 -5 -1 -12 -10 -15 -27 -11 -37 -7 -24 9 14 17 26 19 34 6z m2764 -111 c-7
-10 -14 -18 -15 -16 -6 6 9 36 18 36 5 0 4 -9 -3 -20z m-118 -70 c0 -5 -2 -10
-4 -10 -3 0 -8 5 -11 10 -3 6 -1 10 4 10 6 0 11 -4 11 -10z m-69 -19 c7 11 9
10 9 -4 0 -20 -22 -19 -26 1 -2 9 -1 9 3 1 4 -8 8 -7 14 2z m-194 -36 c0 -8
-4 -12 -9 -9 -5 3 -6 10 -3 15 9 13 12 11 12 -6z m824 -248 c-10 -9 -11 -8 -5
6 3 10 9 15 12 12 3 -3 0 -11 -7 -18z m480 0 c-10 -9 -11 -8 -5 6 3 10 9 15
12 12 3 -3 0 -11 -7 -18z m480 0 c-10 -9 -11 -8 -5 6 3 10 9 15 12 12 3 -3 0
-11 -7 -18z m480 0 c-10 -9 -11 -8 -5 6 3 10 9 15 12 12 3 -3 0 -11 -7 -18z
m-1671 -114 c0 -1 -8 -7 -18 -12 -13 -7 -19 -6 -19 2 0 7 9 13 19 13 10 0 18
-1 18 -3z m-795 -172 c-3 -3 -10 1 -15 9 -8 13 -10 13 -10 1 0 -8 -3 -12 -6
-8 -3 3 -3 11 1 17 5 8 11 8 21 -1 8 -6 12 -14 9 -18z m693 -121 c7 -11 11
-20 9 -20 -2 0 -12 9 -22 20 -10 11 -14 20 -9 20 5 0 15 -9 22 -20z m-524 -38
c3 -5 -1 -9 -9 -9 -8 0 -12 4 -9 9 3 4 7 8 9 8 2 0 6 -4 9 -8z m516 -11 c0 -6
-4 -12 -8 -15 -5 -3 -9 1 -9 9 0 8 4 15 9 15 4 0 8 -4 8 -9z m-470 -27 c0 -2
-9 -8 -20 -14 -15 -8 -18 -8 -14 3 4 11 34 21 34 11z m2744 -23 c3 -5 0 -14
-8 -20 -10 -9 -15 -8 -19 3 -4 11 -1 13 10 9 11 -4 14 -2 9 5 -4 7 -5 12 -2
12 3 0 7 -4 10 -9z m-38 -116 c1 -9 -4 -11 -14 -7 -10 4 -12 7 -4 10 7 2 9 9
5 15 -3 7 -2 8 2 4 5 -4 10 -14 11 -22z m-5109 -220 c0 -8 -4 -12 -9 -9 -5 3
-6 10 -3 15 9 13 12 11 12 -6z m71 -70 c-3 -3 -9 2 -12 12 -6 14 -5 15 5 6 7
-7 10 -15 7 -18z m4958 -47 c4 -7 3 -8 -4 -4 -7 4 -12 2 -12 -5 0 -7 -3 -10
-6 -6 -6 5 3 27 11 27 2 0 7 -5 11 -12z m-4966 -68 c0 -5 7 -6 17 -3 11 4 14
3 9 -5 -10 -17 -33 -15 -40 3 -3 8 -1 15 4 15 6 0 10 -4 10 -10z m4974 -5 c-7
-16 -24 -21 -24 -6 0 8 7 13 27 20 1 1 0 -6 -3 -14z m-24 -59 c0 -3 -4 -8 -10
-11 -5 -3 -10 -1 -10 4 0 6 5 11 10 11 6 0 10 -2 10 -4z m-80 -20 c0 -2 -7 -7
-16 -10 -8 -3 -12 -2 -9 4 6 10 25 14 25 6z m-4704 -214 c0 -23 -3 -39 -8 -36
-4 3 -6 10 -2 15 3 5 1 16 -6 24 -8 10 -8 15 1 20 8 6 7 10 -2 17 -11 8 -11 9
1 6 9 -3 15 -19 16 -46z m4654 -57 c-4 -5 -8 -14 -8 -20 0 -5 -6 -11 -14 -13
-8 -2 -9 0 -3 5 16 13 17 34 3 51 -12 14 -11 14 9 2 14 -9 19 -18 13 -25z
m-53 -42 c-4 -3 -1 -13 6 -22 11 -14 10 -14 -5 -2 -16 12 -16 31 -1 31 4 0 3
-3 0 -7z m-4525 -41 c-7 -2 -12 -8 -12 -13 0 -4 8 -6 18 -3 14 5 15 4 2 -5
-11 -8 -18 -7 -27 6 -15 20 -8 34 14 26 11 -4 13 -8 5 -11z m4498 -30 c0 -5
-7 -9 -15 -9 -8 0 -12 4 -9 9 3 4 9 8 15 8 5 0 9 -4 9 -8z m-4410 -26 c0 -3
-4 -8 -10 -11 -5 -3 -10 -1 -10 4 0 6 5 11 10 11 6 0 10 -2 10 -4z m3 -50 c3
-7 -1 -13 -9 -13 -8 0 -12 3 -9 5 3 3 0 11 -7 19 -8 11 -7 12 5 7 8 -3 18 -11
20 -18z m4394 -9 c0 -8 -6 -14 -13 -14 -7 0 -10 6 -7 14 3 7 8 13 12 13 4 0 8
-6 8 -13z m-4392 -35 c-3 -3 -11 0 -18 7 -9 10 -8 11 6 5 10 -3 15 -9 12 -12z
m5 -18 c0 -8 -19 -13 -24 -6 -3 5 1 9 9 9 8 0 15 -2 15 -3z m27 -31 c-2 -2
-14 -6 -27 -8 -18 -3 -20 -2 -10 10 6 8 18 11 26 8 8 -3 13 -7 11 -10z m53
-67 c0 -11 -19 -15 -25 -6 -3 5 1 10 9 10 9 0 16 -2 16 -4z m40 -21 c-10 -12
-10 -15 0 -15 8 0 11 -3 7 -6 -3 -3 -11 -3 -17 1 -8 5 -8 11 1 21 6 8 14 14
16 14 3 0 0 -7 -7 -15z m16 -44 c-4 -5 0 -11 6 -14 7 -2 10 -7 7 -11 -3 -3
-14 3 -24 14 -17 18 -17 20 -1 20 9 0 15 -4 12 -9z m105 -8 c13 -16 12 -17 -3
-4 -10 7 -18 15 -18 17 0 8 8 3 21 -13z m3823 -19 c3 -8 2 -12 -4 -9 -6 3 -10
10 -10 16 0 14 7 11 14 -7z m24 -91 c2 -7 -1 -13 -8 -13 -6 0 -9 4 -5 9 3 5
-3 12 -12 15 -15 4 -15 5 1 3 11 -1 21 -8 24 -14z m-3773 -3 c-3 -5 -12 -10
-18 -10 -7 0 -6 4 3 10 19 12 23 12 15 0z m3727 -84 c7 4 8 2 4 -4 -11 -18
-26 -14 -25 6 0 10 3 12 6 4 2 -6 10 -9 15 -6z m-3727 -36 c-3 -5 -12 -10 -18
-10 -7 0 -6 4 3 10 19 12 23 12 15 0z m55 -22 c0 -6 -3 -8 -7 -5 -3 4 -13 1
-22 -6 -14 -11 -14 -10 -2 6 15 20 31 22 31 5z m80 -18 c0 -5 -2 -10 -4 -10
-3 0 -8 5 -11 10 -3 6 -1 10 4 10 6 0 11 -4 11 -10z m3419 -27 c-7 -7 -14 -11
-18 -8 -3 3 1 10 9 15 10 7 11 10 3 10 -7 0 -13 5 -13 11 0 8 5 8 15 -1 12
-10 13 -16 4 -27z m-3314 -73 c3 -6 -1 -7 -9 -4 -18 7 -21 14 -7 14 6 0 13 -4
16 -10z m79 -99 c3 -5 -1 -11 -9 -14 -9 -4 -12 -1 -8 9 6 16 10 17 17 5z
m2980 -74 c-3 -8 -12 -14 -21 -14 -13 0 -13 2 3 14 10 7 19 13 21 13 1 0 0 -6
-3 -13z m-2695 -91 c9 -10 8 -15 -2 -19 -8 -3 -13 3 -13 14 0 23 0 23 15 5z
m31 4 c0 -5 -2 -10 -4 -10 -3 0 -8 5 -11 10 -3 6 -1 10 4 10 6 0 11 -4 11 -10z
m38 -33 c2 -9 -2 -17 -8 -17 -6 0 -8 5 -4 11 3 6 0 16 -7 21 -12 8 -11 9 1 5
8 -2 16 -11 18 -20z m158 -82 c-6 -16 26 -55 46 -55 8 0 19 5 26 12 7 7 12 9
12 5 0 -4 0 -9 0 -12 0 -3 -2 -4 -3 -2 -2 1 -11 -4 -19 -11 -13 -11 -20 -9
-43 10 -24 21 -45 85 -23 72 5 -3 7 -12 4 -19z m124 -39 c0 -3 -4 -8 -10 -11
-5 -3 -10 -1 -10 4 0 6 5 11 10 11 6 0 10 -2 10 -4z m1717 -18 c-3 -8 -6 -5
-6 6 -1 11 2 17 5 13 3 -3 4 -12 1 -19z m-323 -46 c3 -5 -1 -9 -9 -9 -8 0 -12
4 -9 9 3 4 7 8 9 8 2 0 6 -4 9 -8z m-1119 -11 c3 -5 2 -12 -3 -15 -5 -3 -9 1
-9 9 0 17 3 19 12 6z m36 -5 c5 3 9 0 9 -6 0 -15 -23 -7 -26 8 -1 7 0 8 3 2 2
-5 9 -8 14 -4z m127 0 c-7 -8 -15 -12 -17 -11 -5 6 10 25 20 25 5 0 4 -6 -3
-14z"/>
<path d="M2000 5290 c-9 -6 -10 -10 -3 -10 6 0 15 5 18 10 8 12 4 12 -15 0z"/>
<path d="M2243 5283 c0 -9 4 -10 14 -2 7 6 13 12 13 14 0 1 -6 2 -13 2 -8 0
-14 -6 -14 -14z"/>
<path d="M1916 5231 c-3 -4 3 -16 13 -25 15 -14 20 -14 30 -2 9 11 8 15 -3 19
-11 4 -13 1 -9 -11 6 -15 5 -15 -10 -3 -9 7 -14 17 -11 22 3 5 3 9 0 9 -3 0
-7 -4 -10 -9z"/>
<path d="M1850 5191 c0 -5 7 -12 16 -15 14 -5 15 -4 4 9 -14 17 -20 19 -20 6z"/>
<path d="M1897 5193 c-4 -3 -7 -11 -7 -17 0 -6 5 -5 12 2 6 6 9 14 7 17 -3 3
-9 2 -12 -2z"/>
<path d="M2826 5192 c-7 -11 51 -68 61 -59 3 4 1 7 -5 7 -7 0 -12 5 -12 11 0
5 5 7 12 3 7 -4 8 -3 4 4 -4 6 -14 8 -23 5 -10 -4 -14 -2 -10 4 4 6 0 16 -7
22 -8 7 -17 8 -20 3z"/>
<path d="M2875 5031 c-3 -5 0 -13 6 -17 8 -5 9 -3 4 6 -6 10 -4 12 9 7 10 -4
15 -3 11 3 -8 13 -22 13 -30 1z"/>
<path d="M2875 4971 c-6 -11 13 -26 22 -17 4 3 1 6 -6 6 -7 0 -9 5 -6 10 3 6
4 10 1 10 -3 0 -7 -4 -11 -9z"/>
<path d="M1245 4930 c-3 -5 -1 -10 4 -10 6 0 11 5 11 10 0 6 -2 10 -4 10 -3 0
-8 -4 -11 -10z"/>
<path d="M1217 4875 c3 -8 9 -12 14 -9 12 7 11 11 -5 17 -10 4 -13 1 -9 -8z"/>
<path d="M1115 4870 c3 -5 8 -10 11 -10 2 0 4 5 4 10 0 6 -5 10 -11 10 -5 0
-7 -4 -4 -10z"/>
<path d="M2876 4821 c-3 -5 1 -11 9 -14 9 -4 12 -1 8 9 -6 16 -10 17 -17 5z"/>
<path d="M930 4691 c0 -6 4 -13 10 -16 6 -3 7 1 4 9 -7 18 -14 21 -14 7z"/>
<path d="M2893 4685 c0 -8 4 -12 9 -9 4 3 8 9 8 15 0 5 -4 9 -8 9 -5 0 -9 -7
-9 -15z"/>
<path d="M2867 4599 c7 -7 15 -10 18 -7 3 3 -2 9 -12 12 -14 6 -15 5 -6 -5z"/>
<path d="M2889 4537 c6 -8 7 -18 3 -22 -4 -5 -1 -5 6 -1 10 6 10 11 1 22 -6 8
-14 14 -16 14 -3 0 0 -6 6 -13z"/>
<path d="M2867 4439 c7 -7 15 -10 18 -7 3 3 -2 9 -12 12 -14 6 -15 5 -6 -5z"/>
<path d="M630 4388 c0 -4 4 -8 9 -8 6 0 12 4 15 8 3 5 -1 9 -9 9 -8 0 -15 -4
-15 -9z"/>
<path d="M2886 4377 c3 -10 9 -15 12 -12 3 3 0 11 -7 18 -10 9 -11 8 -5 -6z"/>
<path d="M475 4239 c-10 -15 3 -25 16 -12 7 7 7 13 1 17 -6 3 -14 1 -17 -5z"/>
<path d="M396 4071 c-4 -5 -2 -12 3 -15 5 -4 12 -2 15 3 4 5 2 12 -3 15 -5 4
-12 2 -15 -3z"/>
<path d="M2876 4071 c-3 -5 2 -15 12 -22 15 -12 16 -12 5 2 -7 9 -10 19 -6 22
3 4 4 7 0 7 -3 0 -8 -4 -11 -9z"/>
<path d="M2874 4022 c0 -10 6 -19 13 -19 8 0 9 6 2 19 -5 10 -11 18 -12 18 -2
0 -3 -8 -3 -18z"/>
<path d="M296 3951 c-3 -5 0 -11 7 -14 8 -3 14 1 14 9 0 16 -13 19 -21 5z"/>
<path d="M224 3813 c2 -12 -1 -24 -8 -27 -6 -2 -1 -3 11 -3 14 1 19 5 14 12
-5 5 -11 17 -15 25 -3 8 -4 5 -2 -7z"/>
<path d="M2877 3777 c-3 -8 1 -14 8 -14 7 0 11 6 8 14 -3 7 -6 13 -8 13 -2 0
-5 -6 -8 -13z"/>
<path d="M2896 3723 c-6 -14 -5 -15 5 -6 7 7 10 15 7 18 -3 3 -9 -2 -12 -12z"/>
<path d="M2867 3639 c7 -7 15 -10 18 -7 3 3 -2 9 -12 12 -14 6 -15 5 -6 -5z"/>
<path d="M2889 3577 c6 -8 7 -18 3 -22 -4 -5 -1 -5 6 -1 10 6 10 11 1 22 -6 8
-14 14 -16 14 -3 0 0 -6 6 -13z"/>
<path d="M2867 3479 c7 -7 15 -10 18 -7 3 3 -2 9 -12 12 -14 6 -15 5 -6 -5z"/>
<path d="M140 3461 c0 -10 19 -25 25 -20 1 2 -3 10 -11 17 -8 7 -14 8 -14 3z"/>
<path d="M2865 3340 c-3 -5 -5 -10 -3 -11 29 -7 36 -5 31 7 -6 16 -19 18 -28
4z"/>
<path d="M73 3235 c0 -8 4 -12 9 -9 5 3 6 10 3 15 -9 13 -12 11 -12 -6z"/>
<path d="M2796 3113 c-6 -14 -5 -15 5 -6 7 7 10 15 7 18 -3 3 -9 -2 -12 -12z"/>
<path d="M2510 3045 c0 -8 2 -15 4 -15 2 0 6 7 10 15 3 8 1 15 -4 15 -6 0 -10
-7 -10 -15z"/>
<path d="M2464 3009 c-8 -14 14 -19 25 -6 8 10 7 14 -5 14 -8 0 -17 -4 -20 -8z"/>
<path d="M3495 2849 c2 -22 25 -51 25 -31 0 7 -4 12 -10 12 -5 0 -7 6 -4 14 3
8 1 16 -4 20 -5 3 -8 -4 -7 -15z"/>
<path d="M3975 2849 c2 -22 25 -51 25 -31 0 7 -4 12 -10 12 -5 0 -7 6 -4 14 3
8 1 16 -4 20 -5 3 -8 -4 -7 -15z"/>
<path d="M4455 2849 c2 -22 25 -51 25 -31 0 7 -4 12 -10 12 -5 0 -7 6 -4 14 3
8 1 16 -4 20 -5 3 -8 -4 -7 -15z"/>
<path d="M4935 2849 c2 -22 25 -51 25 -31 0 7 -4 12 -10 12 -5 0 -7 6 -4 14 3
8 1 16 -4 20 -5 3 -8 -4 -7 -15z"/>
<path d="M3144 2845 c8 -8 18 -15 22 -15 3 0 1 7 -6 15 -7 8 -17 15 -22 15 -5
0 -3 -7 6 -15z"/>
<path d="M3760 2850 c-8 -5 -12 -12 -9 -15 4 -3 12 1 19 10 14 17 11 19 -10 5z"/>
<path d="M4240 2850 c-8 -5 -12 -12 -9 -15 4 -3 12 1 19 10 14 17 11 19 -10 5z"/>
<path d="M4720 2850 c-8 -5 -12 -12 -9 -15 4 -3 12 1 19 10 14 17 11 19 -10 5z"/>
<path d="M2285 2840 c3 -5 8 -10 11 -10 2 0 4 5 4 10 0 6 -5 10 -11 10 -5 0
-7 -4 -4 -10z"/>
<path d="M5136 2828 c3 -5 10 -6 15 -3 13 9 11 12 -6 12 -8 0 -12 -4 -9 -9z"/>
<path d="M3076 2791 c-3 -5 1 -14 8 -20 10 -9 16 -9 21 -1 4 6 1 9 -7 8 -7 -2
-12 3 -10 10 2 14 -4 16 -12 3z"/>
<path d="M5130 2795 c0 -7 54 -55 58 -51 2 2 -9 16 -23 30 -25 25 -35 31 -35
21z"/>
<path d="M3045 2770 c-3 -5 -1 -10 4 -10 6 0 11 5 11 10 0 6 -2 10 -4 10 -3 0
-8 -4 -11 -10z"/>
<path d="M2270 2741 c0 -6 4 -13 10 -16 6 -3 7 1 4 9 -7 18 -14 21 -14 7z"/>
<path d="M2255 2710 c6 -30 16 -40 12 -12 -2 12 -6 24 -10 28 -3 4 -4 -4 -2
-16z"/>
<path d="M5235 2721 c-6 -11 13 -26 22 -17 4 3 1 6 -6 6 -7 0 -9 5 -6 10 3 6
4 10 1 10 -3 0 -7 -4 -11 -9z"/>
<path d="M2950 2490 c0 -5 5 -10 10 -10 6 0 10 5 10 10 0 6 -4 10 -10 10 -5 0
-10 -4 -10 -10z"/>
<path d="M2819 2383 c0 -5 -2 -16 -4 -26 -3 -14 -1 -16 10 -7 8 6 11 18 8 26
-6 15 -13 19 -14 7z"/>
<path d="M2876 2373 c-6 -14 -5 -15 5 -6 7 7 10 15 7 18 -3 3 -9 -2 -12 -12z"/>
<path d="M2547 2293 c3 -7 6 -13 8 -13 1 0 7 6 13 13 8 10 6 13 -7 13 -11 0
-17 -6 -14 -13z"/>
<path d="M2720 2299 c0 -5 -6 -7 -12 -3 -7 4 -9 3 -5 -1 13 -15 36 -14 30 1
-6 17 -13 18 -13 3z"/>
<path d="M30 2292 c0 -15 11 -21 27 -15 12 5 12 7 1 14 -17 11 -28 11 -28 1z"/>
<path d="M60 2230 c18 -12 30 -13 30 -2 0 4 -10 9 -22 9 -18 2 -20 0 -8 -7z"/>
<path d="M69 2153 c8 -16 8 -23 -2 -26 -9 -4 -9 -6 0 -6 20 -2 23 15 7 35 -14
18 -15 18 -5 -3z"/>
<path d="M5233 2115 c0 -8 4 -12 9 -9 5 3 6 10 3 15 -9 13 -12 11 -12 -6z"/>
<path d="M56 2028 c3 -4 11 -5 19 -1 21 7 19 12 -4 10 -11 0 -18 -5 -15 -9z"/>
<path d="M5215 2010 c3 -5 8 -10 11 -10 2 0 4 5 4 10 0 6 -5 10 -11 10 -5 0
-7 -4 -4 -10z"/>
<path d="M5215 1980 c3 -5 8 -10 11 -10 2 0 4 5 4 10 0 6 -5 10 -11 10 -5 0
-7 -4 -4 -10z"/>
<path d="M77 1924 c7 -3 15 -5 19 -4 9 2 44 -42 39 -50 -3 -4 2 -11 11 -14 23
-9 26 -7 14 7 -5 6 -18 23 -28 36 -11 13 -30 26 -43 27 -13 2 -18 0 -12 -2z"/>
<path d="M5140 1900 c0 -5 5 -10 11 -10 5 0 7 5 4 10 -3 6 -8 10 -11 10 -2 0
-4 -4 -4 -10z"/>
<path d="M5190 1900 c0 -5 5 -10 11 -10 5 0 7 5 4 10 -3 6 -8 10 -11 10 -2 0
-4 -4 -4 -10z"/>
<path d="M133 1734 c0 -16 6 -17 25 -5 11 6 9 9 -5 13 -12 3 -20 0 -20 -8z"/>
<path d="M148 1703 c7 -3 16 -2 19 1 4 3 -2 6 -13 5 -11 0 -14 -3 -6 -6z"/>
<path d="M215 1590 c-3 -5 -2 -10 4 -10 5 0 13 5 16 10 3 6 2 10 -4 10 -5 0
-13 -4 -16 -10z"/>
<path d="M213 1554 c0 -10 4 -11 13 -3 8 7 14 7 19 -1 3 -5 1 -10 -4 -10 -6 0
-11 -5 -11 -11 0 -8 5 -7 15 1 11 9 13 16 6 23 -16 16 -38 16 -38 1z"/>
<path d="M5050 1532 c0 -5 7 -9 15 -9 8 0 12 4 9 9 -3 4 -9 8 -15 8 -5 0 -9
-4 -9 -8z"/>
<path d="M5006 1521 c-3 -5 1 -11 9 -15 8 -3 15 -1 15 4 0 13 -18 22 -24 11z"/>
<path d="M295 1381 c-3 -5 -2 -12 3 -15 5 -3 9 1 9 9 0 17 -3 19 -12 6z"/>
<path d="M4720 1070 c-12 -17 -27 -27 -33 -24 -8 5 -8 2 0 -6 13 -14 27 -4 54
43 16 28 2 19 -21 -13z"/>
<path d="M4616 965 c-3 -8 -1 -15 4 -15 6 0 10 7 10 15 0 8 -2 15 -4 15 -2 0
-6 -7 -10 -15z"/>
<path d="M761 797 c-8 -10 -7 -14 2 -14 8 0 14 6 14 14 0 7 -1 13 -2 13 -2 0
-8 -6 -14 -13z"/>
<path d="M756 752 c-3 -5 1 -9 9 -9 8 0 12 4 9 9 -3 4 -7 8 -9 8 -2 0 -6 -4
-9 -8z"/>
<path d="M4444 738 c-3 -5 -10 -6 -15 -3 -5 4 -9 2 -9 -4 0 -13 63 -7 68 7 4
12 -37 12 -44 0z"/>
<path d="M4300 649 c0 -5 -4 -7 -10 -4 -6 3 -7 -1 -4 -9 9 -22 19 -20 21 4 1
11 0 20 -3 20 -2 0 -4 -5 -4 -11z"/>
<path d="M4245 590 c-3 -5 -1 -10 4 -10 6 0 11 5 11 10 0 6 -2 10 -4 10 -3 0
-8 -4 -11 -10z"/>
<path d="M1273 438 c-5 -7 -13 -20 -17 -28 -6 -12 -5 -12 6 1 14 17 42 14 32
-3 -4 -7 -2 -8 5 -4 9 6 9 12 -1 24 -7 10 -13 18 -14 20 -1 1 -6 -3 -11 -10z"/>
<path d="M3990 440 c-15 -9 -14 -11 13 -14 6 -1 11 -7 10 -14 -4 -17 2 -15 18
6 7 9 9 14 5 10 -5 -4 -14 -1 -20 7 -8 10 -16 12 -26 5z"/>
<path d="M3901 341 c-8 -5 -9 -11 -3 -15 5 -3 12 1 16 9 6 17 6 18 -13 6z"/>
<path d="M3670 280 c0 -5 5 -10 10 -10 6 0 10 5 10 10 0 6 -4 10 -10 10 -5 0
-10 -4 -10 -10z"/>
<path d="M1487 269 c7 -7 15 -10 18 -7 3 3 -2 9 -12 12 -14 6 -15 5 -6 -5z"/>
<path d="M1780 189 c0 -9 31 -21 38 -14 3 3 0 5 -7 5 -7 0 -10 4 -7 8 3 5 -1
9 -9 9 -8 0 -15 -4 -15 -8z"/>
<path d="M3440 190 c-13 -8 -12 -10 3 -10 10 0 16 -4 13 -8 -3 -5 1 -9 9 -9
12 0 12 3 3 16 -7 9 -13 17 -13 18 0 1 -7 -2 -15 -7z"/>
<path d="M3630 191 c0 -6 4 -12 8 -15 5 -3 9 1 9 9 0 8 -4 15 -9 15 -4 0 -8
-4 -8 -9z"/>
<path d="M3140 115 c0 -2 6 -8 13 -14 10 -8 14 -7 14 2 0 8 -6 14 -14 14 -7 0
-13 -1 -13 -2z"/>
<path d="M2230 101 c0 -5 7 -12 16 -15 14 -5 15 -4 4 9 -14 17 -20 19 -20 6z"/>
</g>
</svg>
